<svg width="360" height="360" viewBox="0 0 360 360" xmlns="http://www.w3.org/2000/svg">
    <defs>
        <linearGradient id="bg" x1="0%" y1="0%" x2="100%" y2="100%">
            <stop offset="0%" style="stop-color:#F5F5F5"/>
            <stop offset="100%" style="stop-color:#E8E8E8"/>
        </linearGradient>
        <linearGradient id="face" x1="0%" y1="0%" x2="100%" y2="100%">
            <stop offset="0%" style="stop-color:#F4E4BC"/>
            <stop offset="100%" style="stop-color:#E8D4A0"/>
        </linearGradient>
        <linearGradient id="childFace" x1="0%" y1="0%" x2="100%" y2="100%">
            <stop offset="0%" style="stop-color:#FFE8D4"/>
            <stop offset="100%" style="stop-color:#F8D7B8"/>
        </linearGradient>
        <linearGradient id="uniform" x1="0%" y1="0%" x2="100%" y2="100%">
            <stop offset="0%" style="stop-color:#2C2C2C"/>
            <stop offset="100%" style="stop-color:#1A1A1A"/>
        </linearGradient>
    </defs>
    
    <!-- Arka plan - vintage ton -->
    <rect width="360" height="360" fill="url(#bg)"/>
    
    <!-- Zemin -->
    <rect x="0" y="280" width="360" height="80" fill="#D4D4D4"/>
    
    <!-- Atatürk figürü (merkez) - Gerçekçi Proportions -->
    <!-- Vücut - Koyu takım elbise -->
    <rect x="140" y="160" width="80" height="140" rx="8" fill="url(#uniform)"/>
    
    <!-- Boyun -->
    <rect x="170" y="140" width="20" height="25" fill="url(#face)"/>
    
    <!-- Kafa - Oval şekil -->
    <ellipse cx="180" cy="120" rx="35" ry="40" fill="url(#face)"/>
    
    <!-- Saç - Yana taranan, kısa -->
    <path d="M145 95 Q160 80 180 85 Q200 80 215 95 L210 110 Q195 100 180 105 Q165 100 150 110 Z" fill="#4A4A4A"/>
    
    <!-- Alın çizgileri -->
    <path d="M155 105 Q180 100 205 105" stroke="#D4B894" stroke-width="1" fill="none" opacity="0.6"/>
    <path d="M160 110 Q180 108 200 110" stroke="#D4B894" stroke-width="0.8" fill="none" opacity="0.4"/>
    
    <!-- Gözler - Derin ve karakteristik -->
    <ellipse cx="168" cy="115" rx="8" ry="5" fill="#FFFFFF"/>
    <ellipse cx="192" cy="115" rx="8" ry="5" fill="#FFFFFF"/>
    <circle cx="168" cy="115" r="4" fill="#2C2C2C"/>
    <circle cx="192" cy="115" r="4" fill="#2C2C2C"/>
    <circle cx="169" cy="114" r="1.5" fill="#FFFFFF"/>
    <circle cx="193" cy="114" r="1.5" fill="#FFFFFF"/>
    
    <!-- Kaşlar - Kalın ve belirgin -->
    <path d="M158 108 Q170 105 178 108" stroke="#3A3A3A" stroke-width="2.5" fill="none"/>
    <path d="M182 108 Q190 105 202 108" stroke="#3A3A3A" stroke-width="2.5" fill="none"/>
    
    <!-- Burun - Belirgin -->
    <path d="M178 118 Q180 125 182 130 Q180 132 178 130 Q180 125 178 118 Z" fill="#E0C68A"/>
    <path d="M176 128 Q180 130 184 128" stroke="#D4B894" stroke-width="1" fill="none"/>
    
    <!-- Ağız - Ciddi ifade -->
    <path d="M172 138 Q180 140 188 138" stroke="#A68B5B" stroke-width="2" fill="none"/>
    
    <!-- Bıyık - Karakteristik kalın bıyık -->
    <ellipse cx="180" cy="133" rx="12" ry="3" fill="#3A3A3A"/>
    
    <!-- Çene ve yanak çizgileri -->
    <path d="M155 125 Q165 135 175 140" stroke="#D4B894" stroke-width="1" fill="none" opacity="0.5"/>
    <path d="M185 140 Q195 135 205 125" stroke="#D4B894" stroke-width="1" fill="none" opacity="0.5"/>
    
    <!-- Kravat -->
    <polygon points="170,150 190,150 185,180 175,180" fill="#8B0000"/>
    <rect x="175" y="150" width="10" height="8" fill="#654321"/>
    
    <!-- Gömlek yakası -->
    <path d="M160 150 L170 150 L175 160 L185 160 L190 150 L200 150 L195 170 L165 170 Z" fill="#FFFFFF"/>
    
    <!-- Sol ÇOCUK - Kız çocuğu (6-7 yaş) - Gerçekçi insan figürü -->
    <!-- Vücut - Beyaz elbise -->
    <ellipse cx="80" cy="235" rx="18" ry="30" fill="#FFFFFF"/>
    <rect x="65" y="215" width="30" height="35" rx="6" fill="#FFFFFF"/>
    
    <!-- Boyun -->
    <rect x="75" y="200" width="10" height="8" fill="url(#childFace)"/>
    
    <!-- Kafa - İnsan çocuk kafası -->
    <ellipse cx="80" cy="185" rx="18" ry="20" fill="url(#childFace)"/>
    
    <!-- Saç - Doğal kız çocuk saçı -->
    <ellipse cx="80" cy="175" rx="22" ry="18" fill="#8B4513"/>
    <!-- Saç ayrığı -->
    <path d="M58 175 Q80 170 102 175 Q95 185 80 185 Q65 185 58 175" fill="#654321"/>
    <!-- Yan saçlar -->
    <ellipse cx="62" cy="180" rx="8" ry="15" fill="#8B4513"/>
    <ellipse cx="98" cy="180" rx="8" ry="15" fill="#8B4513"/>
    
    <!-- Yüz detayları - İnsan çocuk yüzü -->
    <!-- Gözler -->
    <ellipse cx="74" cy="183" rx="4" ry="3" fill="#FFFFFF"/>
    <ellipse cx="86" cy="183" rx="4" ry="3" fill="#FFFFFF"/>
    <ellipse cx="74" cy="183" rx="2.5" ry="2" fill="#4169E1"/>
    <ellipse cx="86" cy="183" rx="2.5" ry="2" fill="#4169E1"/>
    <circle cx="75" cy="182" r="1" fill="#FFFFFF"/>
    <circle cx="87" cy="182" r="1" fill="#FFFFFF"/>
    
    <!-- Kaşlar -->
    <path d="M70 180 Q74 178 78 180" stroke="#654321" stroke-width="1" fill="none"/>
    <path d="M82 180 Q86 178 90 180" stroke="#654321" stroke-width="1" fill="none"/>
    
    <!-- Burun -->
    <ellipse cx="80" cy="188" rx="1.5" ry="2" fill="#F0D4A8"/>
    <path d="M78.5 189 L80 190 L81.5 189" stroke="#E8C794" stroke-width="0.5" fill="none"/>
    
    <!-- Ağız - Doğal gülümseme -->
    <path d="M76 193 Q80 196 84 193" stroke="#CD853F" stroke-width="1.5" fill="none"/>
    
    <!-- Yanaklar -->
    <circle cx="70" cy="188" r="3" fill="#FFB6C1" opacity="0.3"/>
    <circle cx="90" cy="188" r="3" fill="#FFB6C1" opacity="0.3"/>
    
    <!-- Kollar - İnsan anatomisi -->
    <ellipse cx="60" cy="225" rx="5" ry="20" fill="url(#childFace)"/>
    <ellipse cx="100" cy="225" rx="5" ry="20" fill="url(#childFace)"/>
    <!-- Eller -->
    <circle cx="58" cy="242" r="4" fill="url(#childFace)"/>
    <circle cx="102" cy="242" r="4" fill="url(#childFace)"/>
    
    <!-- Ayaklar -->
    <ellipse cx="75" cy="260" rx="4" ry="8" fill="#8B4513"/>
    <ellipse cx="85" cy="260" rx="4" ry="8" fill="#8B4513"/>
    
    <!-- Sağ ÇOCUK - Erkek çocuğu (7-8 yaş) - Gerçekçi insan figürü -->
    <!-- Vücut - Gri gömlek, koyu pantolon -->
    <rect x="252" y="210" width="30" height="22" rx="4" fill="#A0A0A0"/>
    <rect x="257" y="232" width="20" height="35" rx="2" fill="#2C2C2C"/>
    
    <!-- Boyun -->
    <rect x="262" y="195" width="10" height="8" fill="url(#childFace)"/>
    
    <!-- Kafa - İnsan erkek çocuk kafası -->
    <ellipse cx="267" cy="180" rx="16" ry="18" fill="url(#childFace)"/>
    
    <!-- Saç - Erkek çocuk saçı (düzgün, kısa) -->
    <ellipse cx="267" cy="170" rx="18" ry="15" fill="#2C2C2C"/>
    <path d="M249 170 Q267 165 285 170 Q282 175 267 175 Q252 175 249 170" fill="#1A1A1A"/>
    
    <!-- Yüz detayları - İnsan erkek çocuk yüzü -->
    <!-- Gözler -->
    <ellipse cx="262" cy="178" rx="3.5" ry="2.5" fill="#FFFFFF"/>
    <ellipse cx="272" cy="178" rx="3.5" ry="2.5" fill="#FFFFFF"/>
    <ellipse cx="262" cy="178" rx="2" ry="1.8" fill="#8B4513"/>
    <ellipse cx="272" cy="178" rx="2" ry="1.8" fill="#8B4513"/>
    <circle cx="262.5" cy="177" r="0.8" fill="#FFFFFF"/>
    <circle cx="272.5" cy="177" r="0.8" fill="#FFFFFF"/>
    
    <!-- Kaşlar -->
    <path d="M258 175 Q262 173 266 175" stroke="#1A1A1A" stroke-width="1" fill="none"/>
    <path d="M268 175 Q272 173 276 175" stroke="#1A1A1A" stroke-width="1" fill="none"/>
    
    <!-- Burun -->
    <ellipse cx="267" cy="183" rx="1.2" ry="1.8" fill="#F0D4A8"/>
    <path d="M266 184 L267 185 L268 184" stroke="#E8C794" stroke-width="0.4" fill="none"/>
    
    <!-- Ağız - Hafif gülümseme -->
    <path d="M264 187 Q267 189 270 187" stroke="#CD853F" stroke-width="1.2" fill="none"/>
    
    <!-- Kollar - İnsan anatomisi -->
    <ellipse cx="242" cy="220" rx="5" ry="18" fill="url(#childFace)"/>
    <ellipse cx="282" cy="220" rx="5" ry="18" fill="url(#childFace)"/>
    <!-- Eller -->
    <circle cx="240" cy="235" r="3.5" fill="url(#childFace)"/>
    <circle cx="284" cy="235" r="3.5" fill="url(#childFace)"/>
    
    <!-- Ayaklar -->
    <ellipse cx="262" cy="275" rx="3.5" ry="7" fill="#1A1A1A"/>
    <ellipse cx="272" cy="275" rx="3.5" ry="7" fill="#1A1A1A"/>
    
    <!-- Ön plandaki ÇOCUK - Küçük çocuk (4-5 yaş) - En gerçekçi insan figürü -->
    <!-- Vücut - Sarı tişört -->
    <ellipse cx="180" cy="285" rx="15" ry="22" fill="#FFD700"/>
    
    <!-- Boyun -->
    <rect x="175" y="265" width="10" height="6" fill="url(#childFace)"/>
    
    <!-- Kafa - Küçük çocuk kafası -->
    <circle cx="180" cy="250" r="16" fill="url(#childFace)"/>
    
    <!-- Saç - Doğal çocuk saçı -->
    <circle cx="180" cy="240" r="18" fill="#654321"/>
    <path d="M162 240 Q180 235 198 240 Q195 245 180 245 Q165 245 162 240" fill="#8B4513"/>
    <!-- Saç buklesi -->
    <circle cx="170" cy="242" r="4" fill="#654321"/>
    <circle cx="190" cy="242" r="4" fill="#654321"/>
    
    <!-- Yüz detayları - Küçük çocuk yüzü -->
    <!-- Gözler - Büyük çocuk gözleri -->
    <ellipse cx="175" cy="248" rx="3" ry="2.5" fill="#FFFFFF"/>
    <ellipse cx="185" cy="248" rx="3" ry="2.5" fill="#FFFFFF"/>
    <ellipse cx="175" cy="248" rx="2" ry="2" fill="#32CD32"/>
    <ellipse cx="185" cy="248" rx="2" ry="2" fill="#32CD32"/>
    <circle cx="175.5" cy="247" r="0.8" fill="#FFFFFF"/>
    <circle cx="185.5" cy="247" r="0.8" fill="#FFFFFF"/>
    
    <!-- Kaşlar - İnce çocuk kaşları -->
    <path d="M172 245 Q175 244 178 245" stroke="#654321" stroke-width="0.8" fill="none"/>
    <path d="M182 245 Q185 244 188 245" stroke="#654321" stroke-width="0.8" fill="none"/>
    
    <!-- Burun - Küçük çocuk burnu -->
    <ellipse cx="180" cy="252" rx="1" ry="1.5" fill="#F0D4A8"/>
    
    <!-- Ağız - Masum gülümseme -->
    <path d="M177 256 Q180 259 183 256" stroke="#CD853F" stroke-width="1" fill="none"/>
    
    <!-- Yanaklar -->
    <circle cx="170" cy="252" r="2.5" fill="#FFB6C1" opacity="0.4"/>
    <circle cx="190" cy="252" r="2.5" fill="#FFB6C1" opacity="0.4"/>
    
    <!-- Kollar - Küçük çocuk anatomisi -->
    <ellipse cx="165" cy="275" rx="4" ry="15" fill="url(#childFace)"/>
    <ellipse cx="195" cy="275" rx="4" ry="15" fill="url(#childFace)"/>
    <!-- Küçük eller -->
    <circle cx="163" cy="288" r="3" fill="url(#childFace)"/>
    <circle cx="197" cy="288" r="3" fill="url(#childFace)"/>
    
    <!-- Ayaklar -->
    <ellipse cx="175" cy="315" rx="3" ry="6" fill="#4169E1"/>
    <ellipse cx="185" cy="315" rx="3" ry="6" fill="#4169E1"/>
    
    <!-- Türk Bayrağı - Köşede -->
    <rect x="15" y="15" width="60" height="40" fill="#E30A17"/>
    <circle cx="37" cy="35" r="10" fill="#FFFFFF"/>
    <circle cx="41" cy="35" r="7.5" fill="#E30A17"/>
    <path d="M51 28 L56 32 L51 36 L56 40 L51 44 L47 38 L51 36 L47 34 Z" fill="#FFFFFF"/>
    
    <!-- 23 Nisan yazısı -->
    <text x="180" y="30" text-anchor="middle" fill="#1A1A1A" font-size="18" font-family="Arial Black" font-weight="bold">23 NİSAN</text>
    <text x="180" y="50" text-anchor="middle" fill="#666666" font-size="12" font-family="Arial" font-weight="normal">Ulusal Egemenlik ve Çocuk Bayramı</text>
    
    <!-- Grid çizgileri - puzzle için -->
    <line x1="120" y1="0" x2="120" y2="360" stroke="rgba(0,0,0,0.1)" stroke-width="2" stroke-dasharray="4,4"/>
    <line x1="240" y1="0" x2="240" y2="360" stroke="rgba(0,0,0,0.1)" stroke-width="2" stroke-dasharray="4,4"/>
    <line x1="0" y1="120" x2="360" y2="120" stroke="rgba(0,0,0,0.1)" stroke-width="2" stroke-dasharray="4,4"/>
    <line x1="0" y1="240" x2="360" y2="240" stroke="rgba(0,0,0,0.1)" stroke-width="2" stroke-dasharray="4,4"/>
</svg>